<svg xmlns="http://www.w3.org/2000/svg" viewBox="0 0 1920 1080" width="100%" height="100%" opacity="0.06">
  <polygon points="759.6352422706632,227 759.6352422706632,273 719.6152422706632,296 679.5952422706632,273 679.5952422706632,227 719.6152422706632,204" fill="#D4FF00" />
  <polygon points="745.7152422706632,235 745.7152422706632,265 719.6152422706632,280 693.5152422706632,265 693.5152422706632,235 719.6152422706632,220" fill="none" stroke="#D4FF00" stroke-width="2" />
  <polygon points="802.9365124598851,302 802.9365124598851,348 762.9165124598851,371 722.8965124598851,348 722.8965124598851,302 762.9165124598851,279" fill="none" stroke="#D4FF00" stroke-width="6" />
  <circle cx="762.92" cy="273.56" r="6.385062714871475" fill="#D4FF00" />
  <polygon points="846.237782649107,227 846.237782649107,273 806.217782649107,296 766.197782649107,273 766.197782649107,227 806.217782649107,204" fill="#D4FF00" />
  <polygon points="889.539052838329,152 889.539052838329,198 849.519052838329,221 809.499052838329,198 809.499052838329,152 849.519052838329,129" fill="#D4FF00" />
  <polygon points="889.539052838329,302 889.539052838329,348 849.519052838329,371 809.499052838329,348 809.499052838329,302 849.519052838329,279" fill="none" stroke="#D4FF00" stroke-width="6" />
  <polygon points="976.1415932167728,302 976.1415932167728,348 936.1215932167728,371 896.1015932167728,348 896.1015932167728,302 936.1215932167728,279" fill="none" stroke="#D4FF00" stroke-width="2" />
  <circle cx="885.52" cy="295.79" r="3.7696956034141573" fill="#D4FF00" />
  <polygon points="932.8403230275509,377 932.8403230275509,423 892.8203230275509,446 852.8003230275509,423 852.8003230275509,377 892.8203230275509,354" fill="none" stroke="#D4FF00" stroke-width="2" />
  <polygon points="932.8403230275509,227 932.8403230275509,273 892.8203230275509,296 852.8003230275509,273 852.8003230275509,227 892.8203230275509,204" fill="none" stroke="#D4FF00" stroke-width="2" />
  <polygon points="918.9203230275509,235 918.9203230275509,265 892.8203230275509,280 866.7203230275509,265 866.7203230275509,235 892.8203230275509,220" fill="none" stroke="#D4FF00" stroke-width="2" />
  <circle cx="945.61" cy="219.52" r="3.9295897491010656" fill="#D4FF00" />
  <polygon points="846.237782649107,377 846.237782649107,423 806.217782649107,446 766.197782649107,423 766.197782649107,377 806.217782649107,354" fill="#D4FF00" />
  <circle cx="858.90" cy="369.58" r="3.30249951168131" fill="#D4FF00" />
  <polygon points="759.6352422706632,377 759.6352422706632,423 719.6152422706632,446 679.5952422706632,423 679.5952422706632,377 719.6152422706632,354" fill="none" stroke="#D4FF00" stroke-width="2" />
  <circle cx="764.00" cy="374.38" r="6.5684226145140325" fill="#D4FF00" />
  <polygon points="802.9365124598851,452 802.9365124598851,498 762.9165124598851,521 722.8965124598851,498 722.8965124598851,452 762.9165124598851,429" fill="#D4FF00" />
  <circle cx="718.22" cy="449.19" r="5.227555848038204" fill="#D4FF00" />
  <polygon points="716.3339720814413,452 716.3339720814413,498 676.3139720814413,521 636.2939720814413,498 636.2939720814413,452 676.3139720814413,429" fill="#D4FF00" />
  <polygon points="702.4139720814413,460 702.4139720814413,490 676.3139720814413,505 650.2139720814413,490 650.2139720814413,460 676.3139720814413,445" fill="none" stroke="#D4FF00" stroke-width="2" />
  <circle cx="629.88" cy="448.19" r="10.294536693643348" fill="#D4FF00" />
  <polygon points="846.237782649107,527 846.237782649107,573 806.217782649107,596 766.197782649107,573 766.197782649107,527 806.217782649107,504" fill="none" stroke="#D4FF00" stroke-width="6" />
  <polygon points="832.317782649107,535 832.317782649107,565 806.217782649107,580 780.117782649107,565 780.117782649107,535 806.217782649107,520" fill="none" stroke="#D4FF00" stroke-width="2" />
  <polygon points="802.9365124598851,602 802.9365124598851,648 762.9165124598851,671 722.8965124598851,648 722.8965124598851,602 762.9165124598851,579" fill="none" stroke="#D4FF00" stroke-width="6" />
  <circle cx="813.43" cy="654.16" r="5.527728951083661" fill="#D4FF00" />
  <polygon points="889.539052838329,602 889.539052838329,648 849.519052838329,671 809.499052838329,648 809.499052838329,602 849.519052838329,579" fill="none" stroke="#D4FF00" stroke-width="2" />
  <circle cx="849.52" cy="683.46" r="9.124952369131114" fill="#D4FF00" />
  <polygon points="932.8403230275509,527 932.8403230275509,573 892.8203230275509,596 852.8003230275509,573 852.8003230275509,527 892.8203230275509,504" fill="none" stroke="#D4FF00" stroke-width="6" />
  <polygon points="1019.4428634059948,527 1019.4428634059948,573 979.4228634059948,596 939.4028634059948,573 939.4028634059948,527 979.4228634059948,504" fill="none" stroke="#D4FF00" stroke-width="2" />
  <polygon points="976.1415932167728,452 976.1415932167728,498 936.1215932167728,521 896.1015932167728,498 896.1015932167728,452 936.1215932167728,429" fill="none" stroke="#D4FF00" stroke-width="2" />
  <circle cx="991.95" cy="507.24" r="7.366337082871414" fill="#D4FF00" />
  <polygon points="1019.4428634059948,377 1019.4428634059948,423 979.4228634059948,446 939.4028634059948,423 939.4028634059948,377 979.4228634059948,354" fill="none" stroke="#D4FF00" stroke-width="6" />
  <polygon points="1062.7441335952167,302 1062.7441335952167,348 1022.7241335952167,371 982.7041335952167,348 982.7041335952167,302 1022.7241335952167,279" fill="none" stroke="#D4FF00" stroke-width="6" />
  <polygon points="1106.0454037844386,377 1106.0454037844386,423 1066.0254037844386,446 1026.0054037844386,423 1026.0054037844386,377 1066.0254037844386,354" fill="none" stroke="#D4FF00" stroke-width="2" />
  <polygon points="1092.1254037844385,385 1092.1254037844385,415 1066.0254037844386,430 1039.9254037844387,415 1039.9254037844387,385 1066.0254037844386,370" fill="none" stroke="#D4FF00" stroke-width="2" />
  <polygon points="889.539052838329,452 889.539052838329,498 849.519052838329,521 809.499052838329,498 809.499052838329,452 849.519052838329,429" fill="none" stroke="#D4FF00" stroke-width="6" />
  <polygon points="875.619052838329,460 875.619052838329,490 849.519052838329,505 823.419052838329,490 823.419052838329,460 849.519052838329,445" fill="none" stroke="#D4FF00" stroke-width="2" />
  <polygon points="1062.7441335952167,452 1062.7441335952167,498 1022.7241335952167,521 982.7041335952167,498 982.7041335952167,452 1022.7241335952167,429" fill="none" stroke="#D4FF00" stroke-width="2" />
  <polygon points="1048.8241335952166,460 1048.8241335952166,490 1022.7241335952167,505 996.6241335952167,490 996.6241335952167,460 1022.7241335952167,445" fill="none" stroke="#D4FF00" stroke-width="2" />
  <circle cx="977.03" cy="448.62" r="10.639448232380769" fill="#D4FF00" />
  <polygon points="1106.0454037844386,527 1106.0454037844386,573 1066.0254037844386,596 1026.0054037844386,573 1026.0054037844386,527 1066.0254037844386,504" fill="none" stroke="#D4FF00" stroke-width="2" />
  <polygon points="1192.6479441628826,527 1192.6479441628826,573 1152.6279441628826,596 1112.6079441628826,573 1112.6079441628826,527 1152.6279441628826,504" fill="none" stroke="#D4FF00" stroke-width="6" />
  <polygon points="1235.9492143521043,452 1235.9492143521043,498 1195.9292143521043,521 1155.9092143521043,498 1155.9092143521043,452 1195.9292143521043,429" fill="none" stroke="#D4FF00" stroke-width="6" />
  <polygon points="1222.0292143521042,460 1222.0292143521042,490 1195.9292143521043,505 1169.8292143521044,490 1169.8292143521044,460 1195.9292143521043,445" fill="none" stroke="#D4FF00" stroke-width="2" />
  <circle cx="1195.93" cy="525.69" r="3.6777614755733357" fill="#D4FF00" />
  <polygon points="1192.6479441628826,377 1192.6479441628826,423 1152.6279441628826,446 1112.6079441628826,423 1112.6079441628826,377 1152.6279441628826,354" fill="none" stroke="#D4FF00" stroke-width="6" />
  <polygon points="1279.2504845413264,377 1279.2504845413264,423 1239.2304845413264,446 1199.2104845413264,423 1199.2104845413264,377 1239.2304845413264,354" fill="none" stroke="#D4FF00" stroke-width="2" />
  <circle cx="1289.43" cy="428.98" r="8.181394038382432" fill="#D4FF00" />
  <polygon points="1149.3466739736605,452 1149.3466739736605,498 1109.3266739736605,521 1069.3066739736605,498 1069.3066739736605,452 1109.3266739736605,429" fill="none" stroke="#D4FF00" stroke-width="2" />
  <polygon points="1135.4266739736604,460 1135.4266739736604,490 1109.3266739736605,505 1083.2266739736606,490 1083.2266739736606,460 1109.3266739736605,445" fill="none" stroke="#D4FF00" stroke-width="2" />
  <circle cx="1065.66" cy="449.79" r="10.019246376087489" fill="#D4FF00" />
  <polygon points="1885.4682671904334,677 1885.4682671904334,723 1845.4482671904334,746 1805.4282671904334,723 1805.4282671904334,677 1845.4482671904334,654" fill="none" stroke="#D4FF00" stroke-width="2" />
  <polygon points="1972.0708075688772,677 1972.0708075688772,723 1932.0508075688772,746 1892.0308075688772,723 1892.0308075688772,677 1932.0508075688772,654" fill="none" stroke="#D4FF00" stroke-width="2" />
  <polygon points="2058.6733479473214,677 2058.6733479473214,723 2018.6533479473212,746 1978.6333479473212,723 1978.6333479473212,677 2018.6533479473212,654" fill="none" stroke="#D4FF00" stroke-width="2" />
  <circle cx="2018.65" cy="763.32" r="4.188932116376969" fill="#D4FF00" />
  <polygon points="2145.275888325765,677 2145.275888325765,723 2105.255888325765,746 2065.2358883257652,723 2065.2358883257652,677 2105.255888325765,654" fill="none" stroke="#D4FF00" stroke-width="6" />
  <polygon points="2101.974618136543,752 2101.974618136543,798 2061.954618136543,821 2021.9346181365431,798 2021.9346181365431,752 2061.954618136543,729" fill="#D4FF00" />
  <polygon points="2188.577158514987,752 2188.577158514987,798 2148.557158514987,821 2108.537158514987,798 2108.537158514987,752 2148.557158514987,729" fill="none" stroke="#D4FF00" stroke-width="2" />
  <circle cx="2148.56" cy="831.48" r="4.428291411679234" fill="#D4FF00" />
  <polygon points="2145.275888325765,827 2145.275888325765,873 2105.255888325765,896 2065.2358883257652,873 2065.2358883257652,827 2105.255888325765,804" fill="none" stroke="#D4FF00" stroke-width="2" />
  <polygon points="2101.974618136543,902 2101.974618136543,948 2061.954618136543,971 2021.9346181365431,948 2021.9346181365431,902 2061.954618136543,879" fill="none" stroke="#D4FF00" stroke-width="2" />
  <polygon points="2188.577158514987,902 2188.577158514987,948 2148.557158514987,971 2108.537158514987,948 2108.537158514987,902 2148.557158514987,879" fill="#D4FF00" />
  <polygon points="2231.8784287042085,827 2231.8784287042085,873 2191.8584287042086,896 2151.8384287042086,873 2151.8384287042086,827 2191.8584287042086,804" fill="none" stroke="#D4FF00" stroke-width="6" />
  <circle cx="2191.86" cy="902.47" r="8.768955171187539" fill="#D4FF00" />
  <polygon points="2275.1796988934307,902 2275.1796988934307,948 2235.1596988934307,971 2195.1396988934307,948 2195.1396988934307,902 2235.1596988934307,879" fill="none" stroke="#D4FF00" stroke-width="6" />
  <circle cx="2190.58" cy="899.26" r="9.10817468396846" fill="#D4FF00" />
  <polygon points="2318.480969082653,827 2318.480969082653,873 2278.460969082653,896 2238.440969082653,873 2238.440969082653,827 2278.460969082653,804" fill="none" stroke="#D4FF00" stroke-width="6" />
  <polygon points="2231.8784287042085,977 2231.8784287042085,1023 2191.8584287042086,1046 2151.8384287042086,1023 2151.8384287042086,977 2191.8584287042086,954" fill="#D4FF00" />
  <circle cx="2191.86" cy="1056.81" r="10.961965463835696" fill="#D4FF00" />
  <polygon points="2145.275888325765,977 2145.275888325765,1023 2105.255888325765,1046 2065.2358883257652,1023 2065.2358883257652,977 2105.255888325765,954" fill="none" stroke="#D4FF00" stroke-width="6" />
  <circle cx="2105.26" cy="1064.64" r="4.757338239301036" fill="#D4FF00" />
  <polygon points="2015.372077758099,902 2015.372077758099,948 1975.352077758099,971 1935.332077758099,948 1935.332077758099,902 1975.352077758099,879" fill="none" stroke="#D4FF00" stroke-width="6" />
  <circle cx="1926.91" cy="897.03" r="8.358757127701633" fill="#D4FF00" />
  <polygon points="2058.6733479473214,977 2058.6733479473214,1023 2018.6533479473212,1046 1978.6333479473212,1023 1978.6333479473212,977 2018.6533479473212,954" fill="none" stroke="#D4FF00" stroke-width="6" />
  <polygon points="2044.7533479473211,985 2044.7533479473211,1015 2018.6533479473212,1030 1992.5533479473213,1015 1992.5533479473213,985 2018.6533479473212,970" fill="none" stroke="#D4FF00" stroke-width="2" />
  <polygon points="2101.974618136543,1052 2101.974618136543,1098 2061.954618136543,1121 2021.9346181365431,1098 2021.9346181365431,1052 2061.954618136543,1029" fill="#D4FF00" />
  <circle cx="2012.94" cy="1103.30" r="10.48209860715691" fill="#D4FF00" />
  <polygon points="2145.275888325765,1127 2145.275888325765,1173 2105.255888325765,1196 2065.2358883257652,1173 2065.2358883257652,1127 2105.255888325765,1104" fill="none" stroke="#D4FF00" stroke-width="2" />
  <polygon points="2058.6733479473214,1127 2058.6733479473214,1173 2018.6533479473212,1196 1978.6333479473212,1173 1978.6333479473212,1127 2018.6533479473212,1104" fill="none" stroke="#D4FF00" stroke-width="2" />
  <circle cx="2065.41" cy="1176.99" r="3.1113075885920267" fill="#D4FF00" />
  <polygon points="2058.6733479473214,827 2058.6733479473214,873 2018.6533479473212,896 1978.6333479473212,873 1978.6333479473212,827 2018.6533479473212,804" fill="none" stroke="#D4FF00" stroke-width="2" />
  <polygon points="2044.7533479473211,835 2044.7533479473211,865 2018.6533479473212,880 1992.5533479473213,865 1992.5533479473213,835 2018.6533479473212,820" fill="none" stroke="#D4FF00" stroke-width="2" />
  <polygon points="2015.372077758099,1052 2015.372077758099,1098 1975.352077758099,1121 1935.332077758099,1098 1935.332077758099,1052 1975.352077758099,1029" fill="none" stroke="#D4FF00" stroke-width="6" />
  <polygon points="1972.0708075688772,1127 1972.0708075688772,1173 1932.0508075688772,1196 1892.0308075688772,1173 1892.0308075688772,1127 1932.0508075688772,1104" fill="none" stroke="#D4FF00" stroke-width="6" />
  <circle cx="1883.02" cy="1178.31" r="3.9461487981138124" fill="#D4FF00" />
  <polygon points="1928.7695373796553,1202 1928.7695373796553,1248 1888.7495373796553,1271 1848.7295373796553,1248 1848.7295373796553,1202 1888.7495373796553,1179" fill="none" stroke="#D4FF00" stroke-width="2" />
  <polygon points="2015.372077758099,1202 2015.372077758099,1248 1975.352077758099,1271 1935.332077758099,1248 1935.332077758099,1202 1975.352077758099,1179" fill="none" stroke="#D4FF00" stroke-width="2" />
  <polygon points="2001.452077758099,1210 2001.452077758099,1240 1975.352077758099,1255 1949.2520777580992,1240 1949.2520777580992,1210 1975.352077758099,1195" fill="none" stroke="#D4FF00" stroke-width="2" />
  <circle cx="1924.72" cy="1195.77" r="3.634845996648174" fill="#D4FF00" />
  <polygon points="2101.974618136543,1202 2101.974618136543,1248 2061.954618136543,1271 2021.9346181365431,1248 2021.9346181365431,1202 2061.954618136543,1179" fill="#D4FF00" />
  <polygon points="1582.3593758658799,1202 1582.3593758658799,1248 1542.33937586588,1271 1502.31937586588,1248 1502.31937586588,1202 1542.33937586588,1179" fill="none" stroke="#D4FF00" stroke-width="2" />
  <polygon points="1625.6606460551018,1277 1625.6606460551018,1323 1585.6406460551018,1346 1545.6206460551018,1323 1545.6206460551018,1277 1585.6406460551018,1254" fill="none" stroke="#D4FF00" stroke-width="2" />
  <polygon points="1539.058105676658,1277 1539.058105676658,1323 1499.038105676658,1346 1459.018105676658,1323 1459.018105676658,1277 1499.038105676658,1254" fill="none" stroke="#D4FF00" stroke-width="6" />
  <polygon points="1525.138105676658,1285 1525.138105676658,1315 1499.038105676658,1330 1472.938105676658,1315 1472.938105676658,1285 1499.038105676658,1270" fill="none" stroke="#D4FF00" stroke-width="2" />
  <circle cx="1454.79" cy="1325.55" r="8.44101352550796" fill="#D4FF00" />
  <polygon points="1668.9619162443237,1352 1668.9619162443237,1398 1628.9419162443237,1421 1588.9219162443237,1398 1588.9219162443237,1352 1628.9419162443237,1329" fill="none" stroke="#D4FF00" stroke-width="2" />
  <circle cx="1583.33" cy="1401.33" r="10.283482006557097" fill="#D4FF00" />
  <polygon points="1712.2631864335456,1277 1712.2631864335456,1323 1672.2431864335456,1346 1632.2231864335456,1323 1632.2231864335456,1277 1672.2431864335456,1254" fill="none" stroke="#D4FF00" stroke-width="2" />
  <polygon points="1698.3431864335455,1285 1698.3431864335455,1315 1672.2431864335456,1330 1646.1431864335457,1315 1646.1431864335457,1285 1672.2431864335456,1270" fill="none" stroke="#D4FF00" stroke-width="2" />
  <polygon points="1798.8657268119896,1277 1798.8657268119896,1323 1758.8457268119896,1346 1718.8257268119896,1323 1718.8257268119896,1277 1758.8457268119896,1254" fill="none" stroke="#D4FF00" stroke-width="6" />
  <polygon points="1784.9457268119895,1285 1784.9457268119895,1315 1758.8457268119896,1330 1732.7457268119897,1315 1732.7457268119897,1285 1758.8457268119896,1270" fill="none" stroke="#D4FF00" stroke-width="2" />
  <polygon points="1885.4682671904334,1277 1885.4682671904334,1323 1845.4482671904334,1346 1805.4282671904334,1323 1805.4282671904334,1277 1845.4482671904334,1254" fill="none" stroke="#D4FF00" stroke-width="2" />
  <circle cx="1845.45" cy="1351.94" r="3.387478184855331" fill="#D4FF00" />
  <polygon points="1842.1669970012115,1352 1842.1669970012115,1398 1802.1469970012115,1421 1762.1269970012115,1398 1762.1269970012115,1352 1802.1469970012115,1329" fill="none" stroke="#D4FF00" stroke-width="6" />
  <circle cx="1758.84" cy="1400.01" r="6.994333125464321" fill="#D4FF00" />
  <polygon points="1798.8657268119896,1427 1798.8657268119896,1473 1758.8457268119896,1496 1718.8257268119896,1473 1718.8257268119896,1427 1758.8457268119896,1404" fill="none" stroke="#D4FF00" stroke-width="6" />
  <circle cx="1758.85" cy="1505.29" r="6.025487285670805" fill="#D4FF00" />
  <polygon points="1842.1669970012115,1202 1842.1669970012115,1248 1802.1469970012115,1271 1762.1269970012115,1248 1762.1269970012115,1202 1802.1469970012115,1179" fill="none" stroke="#D4FF00" stroke-width="6" />
  <circle cx="1749.70" cy="1194.72" r="7.328421153678862" fill="#D4FF00" />
  <polygon points="1625.6606460551018,1127 1625.6606460551018,1173 1585.6406460551018,1196 1545.6206460551018,1173 1545.6206460551018,1127 1585.6406460551018,1104" fill="none" stroke="#D4FF00" stroke-width="2" />
  <polygon points="1611.7406460551017,1135 1611.7406460551017,1165 1585.6406460551018,1180 1559.540646055102,1165 1559.540646055102,1135 1585.6406460551018,1120" fill="none" stroke="#D4FF00" stroke-width="2" />
  <polygon points="1668.9619162443237,1202 1668.9619162443237,1248 1628.9419162443237,1271 1588.9219162443237,1248 1588.9219162443237,1202 1628.9419162443237,1179" fill="none" stroke="#D4FF00" stroke-width="6" />
  <polygon points="1755.5644566227675,1202 1755.5644566227675,1248 1715.5444566227675,1271 1675.5244566227675,1248 1675.5244566227675,1202 1715.5444566227675,1179" fill="none" stroke="#D4FF00" stroke-width="2" />
  <polygon points="1712.2631864335456,1127 1712.2631864335456,1173 1672.2431864335456,1196 1632.2231864335456,1173 1632.2231864335456,1127 1672.2431864335456,1104" fill="none" stroke="#D4FF00" stroke-width="6" />
  <circle cx="1622.47" cy="1121.26" r="9.244296098775564" fill="#D4FF00" />
  <polygon points="1668.9619162443237,1052 1668.9619162443237,1098 1628.9419162443237,1121 1588.9219162443237,1098 1588.9219162443237,1052 1628.9419162443237,1029" fill="#D4FF00" />
  <polygon points="1755.5644566227675,1052 1755.5644566227675,1098 1715.5444566227675,1121 1675.5244566227675,1098 1675.5244566227675,1052 1715.5444566227675,1029" fill="none" stroke="#D4FF00" stroke-width="2" />
  <polygon points="1741.6444566227674,1060 1741.6444566227674,1090 1715.5444566227675,1105 1689.4444566227676,1090 1689.4444566227676,1060 1715.5444566227675,1045" fill="none" stroke="#D4FF00" stroke-width="2" />
  <circle cx="1669.08" cy="1048.17" r="9.244359338731542" fill="#D4FF00" />
  <polygon points="1712.2631864335456,977 1712.2631864335456,1023 1672.2431864335456,1046 1632.2231864335456,1023 1632.2231864335456,977 1672.2431864335456,954" fill="none" stroke="#D4FF00" stroke-width="2" />
  <polygon points="1625.6606460551018,977 1625.6606460551018,1023 1585.6406460551018,1046 1545.6206460551018,1023 1545.6206460551018,977 1585.6406460551018,954" fill="none" stroke="#D4FF00" stroke-width="6" />
  <circle cx="1585.64" cy="1059.36" r="4.387510157377313" fill="#D4FF00" />
  <polygon points="1582.3593758658799,1052 1582.3593758658799,1098 1542.33937586588,1121 1502.31937586588,1098 1502.31937586588,1052 1542.33937586588,1029" fill="none" stroke="#D4FF00" stroke-width="6" />
  <polygon points="1798.8657268119896,977 1798.8657268119896,1023 1758.8457268119896,1046 1718.8257268119896,1023 1718.8257268119896,977 1758.8457268119896,954" fill="none" stroke="#D4FF00" stroke-width="2" />
  <polygon points="1784.9457268119895,985 1784.9457268119895,1015 1758.8457268119896,1030 1732.7457268119897,1015 1732.7457268119897,985 1758.8457268119896,970" fill="none" stroke="#D4FF00" stroke-width="2" />
  <circle cx="1715.05" cy="1025.29" r="9.505752881817315" fill="#D4FF00" />
  <polygon points="1539.058105676658,977 1539.058105676658,1023 1499.038105676658,1046 1459.018105676658,1023 1459.018105676658,977 1499.038105676658,954" fill="none" stroke="#D4FF00" stroke-width="6" />
  <polygon points="1495.756835487436,902 1495.756835487436,948 1455.736835487436,971 1415.7168354874361,948 1415.7168354874361,902 1455.736835487436,879" fill="none" stroke="#D4FF00" stroke-width="2" />
  <polygon points="1539.058105676658,827 1539.058105676658,873 1499.038105676658,896 1459.018105676658,873 1459.018105676658,827 1499.038105676658,804" fill="none" stroke="#D4FF00" stroke-width="2" />
  <polygon points="1452.455565298214,827 1452.455565298214,873 1412.435565298214,896 1372.415565298214,873 1372.415565298214,827 1412.435565298214,804" fill="#D4FF00" />
  <polygon points="1438.535565298214,835 1438.535565298214,865 1412.435565298214,880 1386.335565298214,865 1386.335565298214,835 1412.435565298214,820" fill="none" stroke="#D4FF00" stroke-width="2" />
  <polygon points="1365.8530249197702,827 1365.8530249197702,873 1325.8330249197702,896 1285.8130249197702,873 1285.8130249197702,827 1325.8330249197702,804" fill="#D4FF00" />
  <polygon points="1322.5517547305483,752 1322.5517547305483,798 1282.5317547305483,821 1242.5117547305483,798 1242.5117547305483,752 1282.5317547305483,729" fill="#D4FF00" />
  <polygon points="1279.2504845413264,827 1279.2504845413264,873 1239.2304845413264,896 1199.2104845413264,873 1199.2104845413264,827 1239.2304845413264,804" fill="none" stroke="#D4FF00" stroke-width="6" />
  <polygon points="1322.5517547305483,902 1322.5517547305483,948 1282.5317547305483,971 1242.5117547305483,948 1242.5117547305483,902 1282.5317547305483,879" fill="none" stroke="#D4FF00" stroke-width="2" />
  <polygon points="1308.6317547305482,910 1308.6317547305482,940 1282.5317547305483,955 1256.4317547305484,940 1256.4317547305484,910 1282.5317547305483,895" fill="none" stroke="#D4FF00" stroke-width="2" />
  <circle cx="1326.94" cy="899.36" r="8.482097336141027" fill="#D4FF00" />
  <polygon points="1235.9492143521043,752 1235.9492143521043,798 1195.9292143521043,821 1155.9092143521043,798 1155.9092143521043,752 1195.9292143521043,729" fill="none" stroke="#D4FF00" stroke-width="6" />
  <circle cx="1195.93" cy="719.52" r="9.21036958219954" fill="#D4FF00" />
  <polygon points="1235.9492143521043,902 1235.9492143521043,948 1195.9292143521043,971 1155.9092143521043,948 1155.9092143521043,902 1195.9292143521043,879" fill="none" stroke="#D4FF00" stroke-width="6" />
  <circle cx="1240.72" cy="899.14" r="8.229953396629314" fill="#D4FF00" />
  <polygon points="1279.2504845413264,977 1279.2504845413264,1023 1239.2304845413264,1046 1199.2104845413264,1023 1199.2104845413264,977 1239.2304845413264,954" fill="none" stroke="#D4FF00" stroke-width="6" />
  <polygon points="1192.6479441628826,827 1192.6479441628826,873 1152.6279441628826,896 1112.6079441628826,873 1112.6079441628826,827 1152.6279441628826,804" fill="none" stroke="#D4FF00" stroke-width="6" />
  <polygon points="1178.7279441628825,835 1178.7279441628825,865 1152.6279441628826,880 1126.5279441628827,865 1126.5279441628827,835 1152.6279441628826,820" fill="none" stroke="#D4FF00" stroke-width="2" />
  <circle cx="1101.49" cy="879.53" r="10.48902125966323" fill="#D4FF00" />
</svg>